<!DOCTYPE svg PUBLIC "-//W3C//DTD SVG 1.1//EN" "http://www.w3.org/Graphics/SVG/1.1/DTD/svg11.dtd">
<!-- Uploaded to: SVG Repo, www.svgrepo.com, Transformed by: SVG Repo Mixer Tools -->
<svg fill="#f2f2f2" version="1.1" id="Layer_1" xmlns:x="&amp;ns_extend;" xmlns:i="&amp;ns_ai;" xmlns:graph="&amp;ns_graphs;" xmlns="http://www.w3.org/2000/svg" xmlns:xlink="http://www.w3.org/1999/xlink" width="199px" height="199px" viewBox="-0.96 -0.96 25.92 25.92" enable-background="new 0 0 24 24" xml:space="preserve" stroke="#f2f2f2" transform="matrix(1, 0, 0, 1, 0, 0)" stroke-width="0.00024000000000000003">
<g id="SVGRepo_bgCarrier" stroke-width="0"/>
<g id="SVGRepo_tracerCarrier" stroke-linecap="round" stroke-linejoin="round" stroke="#CCCCCC" stroke-width="0.096"/>
<g id="SVGRepo_iconCarrier"> <metadata> <sfw> <slices> </slices> <slicesourcebounds width="505" height="984" bottomleftorigin="true" x="0" y="-984"> </slicesourcebounds> </sfw> </metadata> <g> <g> <g> <path d="M12,24c-3.2,0-6.2-1.2-8.5-3.5c-4.7-4.7-4.7-12.3,0-17C5.8,1.2,8.8,0,12,0s6.2,1.2,8.5,3.5c4.7,4.7,4.7,12.3,0,17 C18.2,22.8,15.2,24,12,24z M12,2C9.3,2,6.8,3,4.9,4.9C1,8.8,1,15.2,4.9,19.1C6.8,21,9.3,22,12,22s5.2-1,7.1-2.9 c3.9-3.9,3.9-10.2,0-14.1C17.2,3,14.7,2,12,2z"/> </g> </g> <g> <g> <path d="M12,18c-0.6,0-1-0.4-1-1V7c0-0.6,0.4-1,1-1s1,0.4,1,1v10C13,17.6,12.6,18,12,18z"/> </g> </g> <g> <g> <path d="M17,13H7c-0.6,0-1-0.4-1-1s0.4-1,1-1h10c0.6,0,1,0.4,1,1S17.6,13,17,13z"/> </g> </g> </g> </g>
</svg>